<?xml version="1.0" standalone="no"?>
<!DOCTYPE svg PUBLIC "-//W3C//DTD SVG 20010904//EN"
 "http://www.w3.org/TR/2001/REC-SVG-20010904/DTD/svg10.dtd">
<svg version="1.0" xmlns="http://www.w3.org/2000/svg"
 width="808.000000pt" height="808.000000pt" viewBox="0 0 808.000000 808.000000"
 preserveAspectRatio="xMidYMid meet">
<metadata>
Created by potrace 1.11, written by Peter Selinger 2001-2013
</metadata>
<g transform="translate(0.000000,808.000000) scale(0.100000,-0.100000)"
fill="#000000" stroke="none">
<path d="M2469 7267 c-105 -30 -206 -118 -229 -202 -14 -49 -7 -379 10 -505
19 -134 98 -320 204 -480 286 -428 795 -748 1489 -936 502 -136 868 -351 1085
-639 54 -71 128 -211 138 -261 l6 -31 -213 -6 c-274 -9 -1618 -9 -1862 0
l-189 6 6 31 c3 17 30 78 59 136 l52 105 890 8 c490 5 892 11 894 13 16 16
-207 193 -350 279 l-84 50 -467 3 c-258 2 -468 7 -468 11 0 9 115 75 233 132
48 24 87 46 87 50 0 3 -68 30 -152 59 -147 51 -241 90 -435 180 l-93 43 -82
-55 c-370 -246 -613 -548 -722 -895 -35 -112 -50 -299 -36 -448 26 -284 158
-548 395 -794 195 -201 400 -349 660 -476 180 -88 325 -141 653 -240 136 -40
288 -90 337 -110 416 -168 716 -418 850 -709 19 -41 35 -81 35 -89 0 -10 -18
-16 -61 -21 -80 -8 -2043 -8 -2131 1 -50 4 -68 10 -68 20 0 19 69 166 103 220
l27 43 613 1 c336 1 738 4 892 8 l280 6 -88 72 c-114 94 -201 156 -295 209
l-77 44 -457 0 c-272 0 -459 4 -463 9 -5 10 133 91 249 147 33 16 59 33 59 38
-1 5 -68 33 -150 61 -172 60 -235 86 -396 163 l-119 56 -41 -22 c-141 -75
-434 -338 -544 -486 -108 -146 -198 -328 -237 -479 -39 -149 -47 -539 -12
-620 16 -39 89 -108 148 -138 36 -19 58 -23 138 -23 200 1 306 81 335 254 l11
65 1154 0 1154 0 11 -65 c6 -36 19 -82 29 -102 65 -134 286 -195 448 -126 63
27 144 113 155 164 4 22 8 131 8 244 -1 274 -24 385 -125 595 -69 143 -157
262 -300 405 -195 195 -397 337 -655 461 -168 80 -275 121 -500 189 -529 160
-677 224 -935 405 -100 70 -264 242 -323 336 -46 75 -97 185 -97 212 0 20 950
31 1701 21 l561 -7 -6 -28 c-7 -38 -81 -187 -109 -222 l-22 -27 -887 -7 c-489
-3 -888 -9 -888 -12 2 -20 254 -209 365 -274 l80 -47 410 0 c387 0 515 -5 515
-19 0 -10 -83 -59 -199 -116 -61 -31 -111 -59 -111 -63 0 -4 46 -23 103 -41
147 -48 280 -102 437 -177 l138 -66 75 50 c175 119 382 307 493 448 209 267
302 568 274 888 -27 313 -163 580 -430 846 -181 180 -368 309 -645 445 -209
103 -306 139 -595 221 -280 81 -361 110 -525 189 -235 114 -444 271 -569 426
-67 84 -151 236 -162 295 l-6 32 163 7 c220 9 2085 2 2095 -8 12 -12 -29 -119
-78 -204 l-42 -73 -460 -1 c-254 -1 -657 -5 -896 -8 l-434 -6 89 -76 c113 -96
201 -160 290 -212 l70 -42 468 -3 c257 -2 467 -7 467 -11 0 -10 -136 -86 -243
-136 -47 -22 -86 -42 -87 -45 0 -3 44 -19 98 -36 128 -41 274 -100 450 -181
l144 -65 81 55 c337 229 569 498 687 796 52 131 67 223 75 469 6 152 4 213 -5
248 -18 64 -86 136 -168 176 -59 29 -76 33 -147 33 -65 -1 -91 -6 -135 -26
-115 -54 -179 -136 -188 -244 l-5 -65 -1157 0 -1157 0 -5 65 c-9 107 -73 191
-184 242 -64 29 -162 38 -225 20z"/>
</g>
</svg>
